<svg width="14.507690" height="7.641357" viewBox="0 0 14.5077 7.64136" fill="none" xmlns="http://www.w3.org/2000/svg" xmlns:xlink="http://www.w3.org/1999/xlink">
	<desc>
			Created with Pixso.
	</desc>
	<defs/>
	<path id="Vector" d="M13.5 0.17L7.25 6.26L1 0.17C0.89 0.06 0.74 0 0.58 0C0.43 0 0.28 0.06 0.17 0.17C0.11 0.22 0.07 0.28 0.04 0.35C0.01 0.42 0 0.5 0 0.57C0 0.65 0.01 0.72 0.04 0.79C0.07 0.86 0.11 0.93 0.17 0.98L6.81 7.46C6.93 7.57 7.09 7.64 7.25 7.64C7.41 7.64 7.57 7.57 7.68 7.46L14.33 0.98C14.39 0.93 14.43 0.86 14.46 0.79C14.49 0.72 14.5 0.65 14.5 0.57C14.5 0.5 14.49 0.42 14.46 0.35C14.43 0.28 14.39 0.22 14.33 0.17C14.22 0.06 14.07 0 13.91 0C13.76 0 13.61 0.06 13.5 0.17L13.5 0.17Z" fill="#FDFDFD" fill-opacity="1.000000" fill-rule="nonzero"/>
</svg>
