<svg width="13.734300" height="15.173340" viewBox="0 0 13.7343 15.1733" fill="none" xmlns="http://www.w3.org/2000/svg" xmlns:xlink="http://www.w3.org/1999/xlink">
	<desc>
			Created with Pixso.
	</desc>
	<defs/>
	<path id="Vector" d="M2.74 0.24C2.46 0.08 2.14 -0.01 1.82 0C1.5 0 1.19 0.08 0.91 0.24C0.63 0.4 0.4 0.63 0.24 0.91C0.08 1.19 0 1.51 0 1.83L0 13.34C0 13.66 0.08 13.97 0.24 14.25C0.4 14.53 0.63 14.76 0.91 14.92C1.19 15.08 1.5 15.17 1.82 15.17C2.14 15.17 2.46 15.09 2.74 14.93L12.81 9.17C13.09 9.01 13.32 8.78 13.48 8.5C13.64 8.22 13.73 7.9 13.73 7.58C13.73 7.26 13.64 6.94 13.48 6.66C13.32 6.38 13.09 6.15 12.81 5.99L2.74 0.24Z" fill="#1A3E3E" fill-opacity="1.000000" fill-rule="nonzero"/>
</svg>
