<svg width="130.472244" height="11.234375" viewBox="0 0 130.472 11.2344" fill="none" xmlns="http://www.w3.org/2000/svg" xmlns:xlink="http://www.w3.org/1999/xlink">
	<desc>
			Created with Pixso.
	</desc>
	<defs/>
	<path id="Vector" d="M1.86 4.71L5 4.71C5.5 4.71 5.75 4.67 5.97 4.58C6.5 4.36 6.91 3.89 6.91 3.24C6.91 2.59 6.52 2.11 5.97 1.89C5.75 1.79 5.5 1.75 5 1.75L1.86 1.75L1.86 4.71ZM1.86 11.21L0 11.21L0 0L5.23 0C6.1 0 6.67 0.15 7.15 0.43C8.12 0.96 8.75 1.96 8.75 3.23C8.75 4.46 8.12 5.49 7.14 6.02C6.66 6.29 6.1 6.45 5.23 6.45L1.86 6.45L1.86 11.21ZM15.77 0L17.86 0L20.9 5.75L23.86 0L25.94 0L21.64 8.1C21.11 9.1 20.76 9.7 20.26 10.22C19.68 10.82 18.98 11.23 18.04 11.23C17.38 11.23 16.73 11.02 16.17 10.63L17.12 9.04C17.4 9.25 17.73 9.35 18.07 9.35C18.72 9.35 19.12 8.96 19.63 8.05C19.64 8.02 19.89 7.57 19.89 7.57L15.77 0ZM33.53 0L34.54 0L39.39 5.84L44.23 0L45.25 0L45.25 11.21L43.37 11.21L43.37 3.56L39.39 8.42L35.4 3.56L35.4 11.21L33.53 11.21L33.53 0ZM53.23 0L62.7 0L62.7 1.75L58.89 1.75L58.89 11.21L57.02 11.21L57.02 1.75L53.23 1.75L53.23 0ZM78.46 11.21L78.46 3.39L71.68 11.21L70.67 11.21L70.67 0L72.54 0L72.54 7.82C74.8 5.21 77.06 2.6 79.32 0L80.34 0L80.34 11.21L78.46 11.21ZM97.67 7.88C97.67 9.19 97.02 10.23 96.02 10.78C95.53 11.05 94.94 11.21 94.07 11.21L88.93 11.21L88.93 0L96.66 0L96.66 1.75L90.8 1.75L90.8 4.56L94.07 4.56C94.94 4.56 95.53 4.71 96.01 5C97.02 5.53 97.67 6.6 97.67 7.88ZM95.82 7.88C95.82 7.17 95.4 6.67 94.84 6.42C94.6 6.33 94.35 6.28 93.85 6.28L90.8 6.28L90.8 9.47L93.84 9.47C94.35 9.47 94.61 9.42 94.84 9.32C95.41 9.09 95.82 8.57 95.82 7.88ZM105.75 0L113.4 0L113.4 1.74L107.63 1.74L107.63 4.2L112.11 4.2L112.11 5.92L107.63 5.92L107.63 9.47L113.4 9.47L113.4 11.21L105.75 11.21L105.75 0ZM121 0L130.47 0L130.47 1.75L126.66 1.75L126.66 11.21L124.79 11.21L124.79 1.75L121 1.75L121 0Z" fill="#FFFFFF" fill-opacity="1.000000" fill-rule="nonzero"/>
</svg>
