<svg width="137.000000" height="28.780273" viewBox="0 0 137 28.7803" fill="none" xmlns="http://www.w3.org/2000/svg" xmlns:xlink="http://www.w3.org/1999/xlink">
	<desc>
			Created with Pixso.
	</desc>
	<defs/>
	<path id="Vector" d="M0.15 17.89C0.39 17.83 24.81 12.01 43.19 3.86C45.24 2.95 46.9 2.41 48.29 2.16C46.73 3.73 37.54 7.66 44.88 8.35C51.61 8.99 40.52 16.99 35.43 19.89C22.05 24.13 13.36 25.8 13.21 25.83L13.39 26.81C13.44 26.8 14.22 26.65 15.62 26.34C23 24.71 47.76 18.6 76.17 4.63C80.15 2.67 83.4 1.58 86.14 1.18C85.34 5.29 76.05 14.39 90.88 16.69C104.41 18.79 77.28 24.11 67.17 26.82C65.71 27.21 64.6 27.55 64.03 27.81C59.56 29.86 111.46 28.02 134.67 27.93C135.43 27.95 136.2 27.97 137 27.97L137 26.97C116.27 26.97 108.92 17.49 103.02 9.87C96.89 1.96 92.05 -4.3 75.73 3.73C71.93 5.59 68.1 7.37 64.23 9.07C60.8 7.85 58.73 6.1 56.91 4.56C53.53 1.69 51.09 -0.37 42.93 3.25C24.6 11.38 0.24 17.18 0 17.24L0.15 17.89Z" fill="#FDFDFD" fill-opacity="1.000000" fill-rule="nonzero"/>
</svg>
