<svg width="32.000000" height="32.000000" viewBox="0 0 32 32" fill="none" xmlns="http://www.w3.org/2000/svg" xmlns:xlink="http://www.w3.org/1999/xlink">
	<desc>
			Created with Pixso.
	</desc>
	<defs>
		<clipPath id="clip1_148">
			<rect id="mdi:pinterest" rx="-0.500000" width="31.000000" height="31.000000" transform="translate(0.500000 0.500000)" fill="white" fill-opacity="0"/>
		</clipPath>
	</defs>
	<rect id="mdi:pinterest" rx="-0.500000" width="31.000000" height="31.000000" transform="translate(0.500000 0.500000)" fill="#FFFFFF" fill-opacity="0"/>
	<g clip-path="url(#clip1_148)">
		<path id="Vector" d="M12.05 28.71C13.33 29.1 14.62 29.33 16 29.33C19.53 29.33 22.92 27.92 25.42 25.42C27.92 22.92 29.33 19.53 29.33 15.99C29.33 14.24 28.98 12.51 28.31 10.89C27.64 9.27 26.66 7.8 25.42 6.57C24.19 5.33 22.72 4.35 21.1 3.68C19.48 3.01 17.75 2.66 16 2.66C14.24 2.66 12.51 3.01 10.89 3.68C9.27 4.35 7.81 5.33 6.57 6.57C4.07 9.07 2.66 12.46 2.66 15.99C2.66 21.66 6.22 26.53 11.25 28.45C11.13 27.41 11.01 25.69 11.25 24.5L12.78 17.91C12.78 17.91 12.4 17.14 12.4 15.91C12.4 14.07 13.54 12.7 14.85 12.7C16 12.7 16.53 13.54 16.53 14.62C16.53 15.77 15.77 17.41 15.38 18.98C15.16 20.29 16.08 21.43 17.41 21.43C19.78 21.43 21.62 18.9 21.62 15.33C21.62 12.13 19.33 9.94 16.04 9.94C12.28 9.94 10.06 12.74 10.06 15.69C10.06 16.83 10.44 17.99 11.05 18.75C11.17 18.83 11.17 18.94 11.13 19.14L10.74 20.59C10.74 20.82 10.6 20.9 10.37 20.74C8.66 19.99 7.67 17.57 7.67 15.61C7.67 11.39 10.66 7.57 16.42 7.57C21.01 7.57 24.58 10.86 24.58 15.23C24.58 19.82 21.74 23.5 17.68 23.5C16.38 23.5 15.12 22.81 14.66 21.99L13.77 25.15C13.46 26.3 12.62 27.83 12.05 28.75L12.05 28.71Z" fill="#FFFFFF" fill-opacity="1.000000" fill-rule="nonzero"/>
	</g>
</svg>
