<svg width="32.000000" height="32.000000" viewBox="0 0 32 32" fill="none" xmlns="http://www.w3.org/2000/svg" xmlns:xlink="http://www.w3.org/1999/xlink">
	<desc>
			Created with Pixso.
	</desc>
	<defs>
		<clipPath id="clip1_150">
			<rect id="mdi:skype" rx="-0.500000" width="31.000000" height="31.000000" transform="translate(0.500000 0.500000)" fill="white" fill-opacity="0"/>
		</clipPath>
	</defs>
	<rect id="mdi:skype" rx="-0.500000" width="31.000000" height="31.000000" transform="translate(0.500000 0.500000)" fill="#FFFFFF" fill-opacity="0"/>
	<g clip-path="url(#clip1_150)">
		<path id="Vector" d="M24 8C26.76 10.72 27.8 14.52 27.14 18.06C27.69 19.02 28 20.14 28 21.33C28 23.1 27.29 24.79 26.04 26.04C24.79 27.29 23.1 28 21.33 28C20.14 28 19.02 27.69 18.06 27.14C14.52 27.8 10.72 26.76 8 24C5.24 21.28 4.19 17.48 4.85 13.93C4.3 12.97 4 11.85 4 10.66C4 8.89 4.7 7.2 5.95 5.95C7.2 4.7 8.89 4 10.66 4C11.85 4 12.97 4.3 13.93 4.85C17.48 4.19 21.28 5.23 24 8ZM16.05 22.87C19.87 22.87 21.78 21.04 21.78 18.56C21.78 16.97 21.04 15.28 18.14 14.62L15.49 14.04C14.48 13.81 13.33 13.5 13.33 12.56C13.33 11.6 14.13 10.93 15.6 10.93C18.57 10.93 18.29 12.97 19.77 12.97C20.54 12.97 21.21 12.52 21.21 11.73C21.21 9.9 18.29 8.53 15.81 8.53C13.13 8.53 10.26 9.67 10.26 12.72C10.26 14.18 10.78 15.74 13.66 16.46L17.25 17.37C18.33 17.63 18.6 18.24 18.6 18.79C18.6 19.7 17.69 20.6 16.05 20.6C12.84 20.6 13.28 18.13 11.56 18.13C10.78 18.13 10.22 18.66 10.22 19.42C10.22 20.9 12 22.87 16.05 22.87Z" fill="#FFFFFF" fill-opacity="1.000000" fill-rule="nonzero"/>
	</g>
</svg>
