<svg width="32.000000" height="32.000000" viewBox="0 0 32 32" fill="none" xmlns="http://www.w3.org/2000/svg" xmlns:xlink="http://www.w3.org/1999/xlink">
	<desc>
			Created with Pixso.
	</desc>
	<defs>
		<clipPath id="clip1_144">
			<rect id="ic:baseline-telegram" rx="-0.500000" width="31.000000" height="31.000000" transform="translate(0.500000 0.500000)" fill="white" fill-opacity="0"/>
		</clipPath>
	</defs>
	<rect id="ic:baseline-telegram" rx="-0.500000" width="31.000000" height="31.000000" transform="translate(0.500000 0.500000)" fill="#FFFFFF" fill-opacity="0"/>
	<g clip-path="url(#clip1_144)">
		<path id="Vector" d="M16 2.66C8.63 2.66 2.66 8.63 2.66 15.99C2.66 23.35 8.63 29.33 16 29.33C23.36 29.33 29.33 23.35 29.33 15.99C29.33 8.63 23.36 2.66 16 2.66ZM22.18 11.73C21.98 13.83 21.12 18.95 20.68 21.31C20.49 22.31 20.12 22.65 19.77 22.69C19 22.75 18.41 22.18 17.66 21.69C16.49 20.91 15.82 20.43 14.69 19.69C13.37 18.82 14.22 18.34 14.98 17.57C15.18 17.37 18.6 14.26 18.66 13.98C18.67 13.94 18.67 13.9 18.66 13.85C18.65 13.81 18.62 13.77 18.6 13.74C18.52 13.67 18.41 13.7 18.32 13.71C18.2 13.74 16.33 14.98 12.69 17.43C12.16 17.79 11.68 17.98 11.25 17.97C10.77 17.95 9.86 17.7 9.18 17.47C8.34 17.21 7.69 17.06 7.74 16.59C7.77 16.35 8.1 16.11 8.73 15.86C12.62 14.17 15.21 13.05 16.5 12.51C20.21 10.97 20.97 10.7 21.48 10.7C21.58 10.7 21.84 10.73 22 10.86C22.13 10.97 22.17 11.11 22.18 11.22C22.17 11.3 22.2 11.54 22.18 11.73Z" fill="#FFFFFF" fill-opacity="1.000000" fill-rule="nonzero"/>
	</g>
</svg>
