<svg width="32.000000" height="32.000000" viewBox="0 0 32 32" fill="none" xmlns="http://www.w3.org/2000/svg" xmlns:xlink="http://www.w3.org/1999/xlink">
	<desc>
			Created with Pixso.
	</desc>
	<defs>
		<clipPath id="clip1_146">
			<rect id="entypo-social:vk-with-circle" rx="-0.500000" width="31.000000" height="31.000000" transform="translate(0.500000 0.500000)" fill="white" fill-opacity="0"/>
		</clipPath>
	</defs>
	<rect id="entypo-social:vk-with-circle" rx="-0.500000" width="31.000000" height="31.000000" transform="translate(0.500000 0.500000)" fill="#FFFFFF" fill-opacity="0"/>
	<g clip-path="url(#clip1_146)">
		<path id="Vector" d="M16.36 3C8.98 3 3 8.98 3 16.36C3 23.73 8.98 29.72 16.36 29.72C23.73 29.72 29.72 23.73 29.72 16.36C29.72 8.98 23.73 3 16.36 3ZM21.49 18.07C21.49 18.07 22.67 19.23 22.97 19.78C22.97 19.79 22.98 19.8 22.98 19.8C23.1 20 23.13 20.16 23.07 20.27C22.97 20.46 22.64 20.56 22.52 20.57L20.44 20.57C20.29 20.57 19.99 20.53 19.62 20.28C19.34 20.08 19.06 19.75 18.79 19.44C18.38 18.97 18.03 18.56 17.68 18.56C17.63 18.56 17.59 18.57 17.55 18.58C17.28 18.67 16.94 19.05 16.94 20.07C16.94 20.38 16.69 20.57 16.51 20.57L15.55 20.57C15.23 20.57 13.53 20.45 12.03 18.87C10.19 16.93 8.53 13.03 8.52 13C8.41 12.74 8.63 12.61 8.87 12.61L10.97 12.61C11.25 12.61 11.35 12.78 11.41 12.93C11.49 13.11 11.76 13.81 12.21 14.6C12.95 15.89 13.4 16.41 13.76 16.41C13.82 16.41 13.89 16.4 13.95 16.36C14.42 16.1 14.33 14.42 14.31 14.08C14.31 14.01 14.31 13.33 14.07 13C13.9 12.76 13.6 12.67 13.43 12.64C13.5 12.54 13.59 12.46 13.7 12.4C14.03 12.24 14.61 12.22 15.18 12.22L15.51 12.22C16.13 12.22 16.29 12.26 16.52 12.32C16.98 12.43 16.99 12.73 16.95 13.74C16.94 14.03 16.92 14.36 16.92 14.74C16.92 14.82 16.92 14.91 16.92 15.01C16.91 15.52 16.89 16.11 17.25 16.35C17.3 16.38 17.36 16.4 17.41 16.4C17.54 16.4 17.92 16.4 18.95 14.63C19.27 14.05 19.55 13.46 19.78 12.85C19.8 12.82 19.86 12.7 19.94 12.66C19.99 12.63 20.05 12.62 20.11 12.62L22.59 12.62C22.86 12.62 23.04 12.66 23.08 12.77C23.14 12.93 23.07 13.44 21.93 14.97L21.43 15.64C20.4 16.98 20.4 17.05 21.49 18.07Z" fill="#FFFFFF" fill-opacity="1.000000" fill-rule="nonzero"/>
	</g>
</svg>
